<svg width="32" height="32" viewBox="0 0 32 32" fill="none" xmlns="http://www.w3.org/2000/svg">
  <rect width="32" height="32" rx="8" fill="#c8f135"/>
  <path d="M7.4 7.6 C5.9 8.2 5.2 9.4 5.4 11 C5.6 12.4 5.2 13.4 4.2 14 C5.4 14.7 5.9 15.8 5.7 17.3 C5.5 18.9 6.1 20.2 7.6 20.9" stroke="#0a0a0c" stroke-width="1.8" stroke-linecap="round" stroke-linejoin="round" fill="none"/>
  <path d="M24.6 7.6 C26.1 8.2 26.8 9.4 26.6 11 C26.4 12.4 26.8 13.4 27.8 14 C26.6 14.7 26.1 15.8 26.3 17.3 C26.5 18.9 25.9 20.2 24.4 20.9" stroke="#0a0a0c" stroke-width="1.8" stroke-linecap="round" stroke-linejoin="round" fill="none"/>
  <path d="M12 7.8 H17 C19.2 7.8 20.7 9 20.7 11 C20.7 12.4 19.9 13.4 18.6 13.9 C20.2 14.3 21.1 15.5 21.1 17.1 C21.1 19.2 19.5 20.4 17.2 20.4 H12 Z M14.7 10.1 V12.9 H16.7 C17.7 12.9 18.3 12.4 18.3 11.5 C18.3 10.6 17.7 10.1 16.7 10.1 Z M14.7 15 V18.1 H17 C18 18.1 18.6 17.5 18.6 16.5 C18.6 15.6 18 15 17 15 Z" fill="#0a0a0c"/>
</svg>
